<?xml version="1.0" standalone="no"?>
<!DOCTYPE svg PUBLIC "-//W3C//DTD SVG 20010904//EN"
 "http://www.w3.org/TR/2001/REC-SVG-20010904/DTD/svg10.dtd">
<svg version="1.0" xmlns="http://www.w3.org/2000/svg"
 width="1024.000000pt" height="1024.000000pt" viewBox="0 0 1024.000000 1024.000000"
 preserveAspectRatio="xMidYMid meet">
<metadata>
Created by potrace 1.16, written by Peter Selinger 2001-2019
</metadata>
<g transform="translate(0.000000,1024.000000) scale(0.100000,-0.100000)"
fill="#000000" stroke="none">
<path d="M4850 8919 c-894 -44 -1805 -446 -2435 -1074 -574 -572 -940 -1248
-1100 -2033 -125 -616 -89 -1292 101 -1912 115 -373 289 -732 507 -1042 84
-120 210 -279 254 -321 l29 -27 83 255 83 255 -60 82 c-291 406 -488 887 -571
1398 -70 430 -58 882 35 1294 121 535 342 998 678 1421 473 594 1081 981 1831
1165 518 127 1034 127 1545 0 477 -118 933 -346 1335 -666 123 -99 379 -350
471 -464 626 -772 895 -1732 754 -2685 -76 -515 -244 -960 -517 -1368 -62 -93
-113 -175 -113 -182 0 -28 122 -463 138 -491 12 -21 99 75 236 256 599 796
863 1879 701 2875 -99 608 -330 1172 -684 1665 -385 538 -832 920 -1411 1204
-435 215 -854 338 -1293 380 -183 18 -414 24 -597 15z"/>
<path d="M3394 7865 c-120 -26 -211 -91 -270 -191 -56 -95 -54 -56 -54 -1283
0 -624 1 -1135 3 -1136 1 -1 37 -5 79 -8 l78 -7 2 1108 3 1107 22 41 c35 65
69 100 125 128 l52 26 425 0 426 0 16 39 c34 80 147 118 226 78 34 -18 78 -66
88 -97 6 -19 18 -19 454 -22 l448 -3 48 -30 c60 -37 110 -109 124 -178 8 -36
11 -543 9 -1692 l-3 -1640 -23 -50 c-30 -65 -85 -122 -147 -151 l-50 -24 -719
0 -718 0 6 -27 c3 -16 9 -70 12 -121 l7 -92 751 2 751 3 57 23 c116 47 213
169 238 297 8 44 10 539 8 1830 l-3 1770 -23 58 c-44 109 -120 185 -229 229
l-58 23 -1050 2 c-845 1 -1062 -1 -1111 -12z"/>
<path d="M4400 7660 c-27 -27 -25 -62 3 -88 46 -43 117 -17 117 42 0 19 -8 40
-18 49 -25 23 -78 21 -102 -3z"/>
<path d="M3442 7562 c-36 -11 -93 -62 -108 -98 -12 -28 -14 -218 -14 -1157 l0
-1124 26 -24 c38 -34 107 -143 137 -214 14 -33 39 -112 57 -175 47 -168 86
-239 200 -368 l54 -62 813 0 c724 0 813 -2 827 -16 19 -19 21 -60 4 -71 -7 -4
-362 -10 -789 -13 l-776 -5 54 -89 c29 -50 61 -112 71 -138 l17 -48 715 0 716
0 51 25 c33 17 61 41 79 68 l29 42 3 1655 c2 1157 0 1666 -8 1692 -14 48 -55
97 -97 114 -49 21 -893 20 -893 0 0 -26 -50 -74 -95 -92 -81 -30 -173 1 -212
74 l-18 32 -410 -1 c-225 -1 -420 -4 -433 -7z m1881 -353 c12 -7 25 -17 29
-23 11 -16 10 -64 -2 -71 -5 -3 -10 -25 -10 -48 0 -36 4 -44 30 -59 39 -22 60
-72 60 -142 0 -68 -15 -102 -51 -118 l-27 -12 -4 -216 c-3 -189 -5 -219 -21
-244 -21 -32 -92 -67 -142 -69 -32 -2 -33 -3 -40 -54 -9 -76 -31 -98 -97 -98
-29 0 -72 -6 -96 -13 -53 -16 -90 -2 -112 44 -14 30 -19 32 -79 36 -58 4 -66
7 -97 41 l-34 37 -41 -26 c-30 -19 -40 -30 -36 -45 10 -37 -10 -147 -33 -179
-12 -16 -17 -30 -11 -30 7 0 11 -23 11 -56 l0 -55 -32 3 c-30 3 -33 7 -36 38
-3 35 -4 35 -41 32 l-38 -4 -7 -55 c-3 -30 -14 -69 -23 -86 -10 -20 -17 -57
-17 -97 l-1 -65 -30 0 c-29 0 -30 2 -33 51 l-3 52 -39 4 c-37 3 -38 2 -44 -32
-3 -19 -12 -47 -19 -61 -8 -14 -14 -40 -15 -57 -1 -42 -8 -52 -38 -52 -25 0
-28 4 -38 51 -5 24 -11 27 -66 31 -119 9 -150 57 -150 236 l0 122 -26 0 c-14
0 -33 4 -43 10 -17 9 -19 3 -23 -83 -5 -117 -28 -165 -91 -196 -24 -12 -55
-21 -70 -21 -27 0 -27 -1 -27 -65 0 -62 -1 -66 -27 -76 -36 -14 -74 -1 -90 31
-20 39 -18 353 2 370 11 9 15 35 15 109 0 104 11 136 45 130 25 -5 33 -36 34
-140 1 -64 5 -90 16 -99 10 -8 15 -31 15 -67 0 -40 4 -55 16 -60 9 -3 20 0 25
8 5 8 9 107 9 220 0 193 1 207 20 224 17 16 20 31 20 115 0 104 10 128 48 115
26 -8 32 -33 32 -136 0 -65 4 -90 15 -99 10 -8 15 -31 15 -71 0 -48 4 -60 22
-73 12 -9 26 -16 30 -16 5 0 8 33 8 74 0 56 4 77 16 87 14 12 16 29 11 121 -5
88 -3 111 9 123 20 20 43 19 66 -1 16 -15 17 -28 11 -119 -5 -86 -3 -106 11
-126 14 -20 16 -58 16 -271 0 -158 4 -248 10 -249 46 -6 45 -7 48 78 2 70 6
84 22 93 17 9 20 22 20 95 0 95 5 115 29 115 33 0 41 -22 41 -112 0 -62 4 -89
14 -95 7 -4 18 -18 25 -30 6 -13 18 -23 26 -23 12 0 15 18 15 94 0 71 4 97 15
106 11 9 15 33 15 90 0 95 5 110 36 110 32 0 44 -32 44 -115 0 -58 3 -66 25
-81 29 -19 27 -20 49 23 14 27 16 73 16 312 l0 281 24 15 c27 18 69 7 80 -20
3 -9 6 -88 6 -176 0 -99 4 -159 10 -159 6 0 10 4 10 8 0 5 11 14 25 20 23 11
25 17 25 72 0 45 4 62 15 66 12 5 15 26 15 99 0 76 3 95 18 108 16 15 21 15
38 3 16 -12 20 -30 22 -110 2 -53 8 -96 12 -96 16 0 30 -65 30 -140 0 -68 2
-78 19 -83 15 -3 20 2 25 23 3 17 14 31 26 35 18 6 20 15 20 84 0 94 18 122
54 85 11 -11 16 -35 16 -81 0 -49 5 -72 17 -85 10 -11 20 -40 23 -66 4 -40 8
-46 25 -44 11 2 22 6 24 8 3 3 8 56 10 122 1 12 9 29 20 38 15 14 18 26 14 78
-6 72 8 116 36 116 30 0 41 -30 41 -110 0 -62 3 -74 23 -91 33 -28 54 -24 61
12 3 17 6 166 6 330 l0 299 25 12 c21 10 25 18 25 57 0 25 -7 55 -15 65 -21
28 -19 43 10 71 28 29 29 29 58 14z m-1212 -9 c22 -13 26 -62 5 -79 -9 -8
-103 -11 -322 -9 l-308 3 -15 27 c-14 24 -14 28 3 47 19 20 29 21 318 21 187
0 307 -4 319 -10z m668 -94 c32 -17 133 -122 181 -190 18 -25 36 -46 40 -46 3
0 21 11 40 25 43 32 74 32 88 1 14 -31 -1 -56 -61 -100 -58 -44 -98 -47 -132
-10 -14 15 -25 30 -25 35 0 15 -111 144 -151 176 -31 25 -45 30 -62 24 -12 -5
-98 -50 -192 -100 -179 -98 -209 -105 -221 -56 -3 13 -4 29 -2 35 2 6 91 57
198 115 206 110 241 121 299 91z m-671 -142 c25 -17 29 -56 8 -74 -11 -8 -96
-11 -318 -10 -281 1 -304 2 -322 19 -22 23 -14 58 17 71 12 5 150 9 307 9 243
1 289 -1 308 -15z m7 -264 c17 -14 19 -48 5 -70 -8 -13 -54 -15 -292 -18 -156
-2 -298 0 -316 3 -59 11 -67 89 -10 97 13 2 153 2 311 1 209 -1 292 -4 302
-13z m1316 -1300 c21 -12 25 -50 7 -68 -9 -9 -242 -12 -987 -12 -893 0 -976 1
-993 17 -21 19 -23 44 -6 61 16 16 1949 18 1979 2z m-1157 -216 c14 -5 16 -33
16 -205 l0 -199 60 0 60 0 0 193 c0 137 3 196 12 205 13 13 76 16 95 4 9 -6
13 -63 15 -206 l3 -199 50 0 50 0 5 64 c5 58 7 64 33 73 17 6 37 6 55 0 25 -9
27 -14 30 -71 l3 -61 54 -4 55 -3 0 43 c0 66 13 82 65 82 24 0 47 -4 50 -10 3
-5 9 -32 12 -60 6 -48 7 -50 37 -50 17 0 41 -3 54 -6 20 -6 22 -3 22 38 0 54
13 68 62 68 44 0 73 -34 66 -75 l-5 -25 93 0 c81 0 97 -3 114 -20 23 -23 25
-38 6 -62 -12 -17 -67 -18 -894 -18 -879 0 -881 0 -895 21 -18 25 -11 56 15
70 10 5 73 9 141 8 l122 -1 2 50 c1 28 4 56 8 62 3 5 26 10 50 10 53 0 65 -16
65 -85 0 -39 3 -46 16 -41 9 3 33 6 53 6 l38 0 -1 196 c0 161 2 197 14 204 17
11 71 13 94 4z m1162 -638 c18 -25 18 -37 0 -62 -14 -19 -34 -19 -865 -18
-928 1 -885 -2 -879 58 3 27 8 32 38 37 19 4 408 6 863 5 808 -1 829 -1 843
-20z"/>
<path d="M6470 7475 c-195 -44 -353 -181 -427 -370 -24 -63 -27 -83 -27 -200
-1 -133 5 -162 53 -282 63 -160 238 -408 408 -581 56 -58 103 -106 103 -107 0
-2 -9 -5 -20 -8 -25 -7 -40 -45 -34 -88 8 -49 27 -64 83 -64 66 0 81 15 81 80
0 56 -9 69 -53 80 -27 7 -27 8 71 109 101 105 241 285 306 393 71 119 134 266
152 352 38 190 -19 381 -154 523 -107 113 -225 166 -381 173 -63 3 -118 0
-161 -10z m282 -233 c211 -104 281 -348 155 -546 -119 -187 -399 -224 -564
-73 -264 242 -88 669 269 654 61 -3 89 -10 140 -35z"/>
<path d="M7186 6670 c-9 -22 -16 -46 -16 -53 1 -6 48 -50 105 -97 l105 -84 0
-168 c0 -161 1 -167 22 -182 12 -9 32 -16 43 -16 11 0 31 7 43 16 21 15 22 20
22 208 l0 192 -27 26 c-33 30 -174 144 -220 176 -44 31 -59 28 -77 -18z"/>
<path d="M6286 5914 c-21 -21 -22 -107 -1 -124 8 -7 35 -15 59 -17 38 -5 48
-2 70 20 33 33 35 88 6 117 -25 25 -111 28 -134 4z"/>
<path d="M6794 5905 c-18 -27 -15 -98 5 -118 5 -5 32 -12 59 -15 64 -6 92 18
92 79 0 67 -12 79 -80 79 -53 0 -61 -3 -76 -25z"/>
<path d="M2745 5886 c-62 -28 -69 -42 -232 -441 -36 -88 -79 -196 -95 -240
l-31 -80 2 -485 c2 -365 6 -492 15 -515 12 -27 363 -594 407 -656 15 -21 29
-27 72 -32 34 -3 125 -35 252 -87 498 -203 715 -290 728 -290 16 0 60 167 78
295 24 173 -10 408 -84 567 -47 102 -86 160 -216 323 -154 193 -182 244 -252
456 -84 255 -122 324 -200 365 -76 40 -190 9 -223 -60 -25 -52 -31 -12 100
-679 30 -154 54 -283 54 -288 0 -19 -41 -49 -68 -49 -35 0 -69 34 -82 82 -23
81 -103 479 -135 663 -55 323 -55 313 0 500 102 345 126 440 127 497 0 64 -20
108 -64 141 -34 25 -113 32 -153 13z"/>
<path d="M7162 5880 c-33 -15 -47 -29 -62 -62 -35 -78 -31 -101 84 -481 77
-253 78 -268 41 -473 -68 -370 -166 -803 -190 -840 -33 -50 -112 -46 -125 6
-7 29 -13 -2 90 505 91 446 91 445 25 504 -85 74 -199 60 -266 -32 -40 -55
-50 -78 -120 -289 -32 -98 -72 -204 -88 -235 -16 -32 -88 -139 -160 -238 -147
-202 -235 -364 -273 -505 -20 -75 -23 -108 -23 -275 0 -177 2 -198 29 -302 16
-62 32 -113 36 -113 4 0 203 81 444 180 469 193 531 215 575 205 28 -6 31 -2
117 137 48 79 140 226 204 328 65 102 126 201 136 220 17 32 19 73 24 500 4
343 2 478 -7 515 -6 28 -54 156 -106 285 -131 324 -155 380 -184 419 -46 61
-123 77 -201 41z"/>
<path d="M6020 5680 c-13 -13 -20 -33 -20 -60 0 -55 26 -80 85 -80 59 0 85 25
85 80 0 55 -26 80 -85 80 -32 0 -51 -6 -65 -20z"/>
<path d="M6290 5680 c-27 -27 -28 -100 -2 -123 30 -27 103 -22 132 8 19 20 22
31 17 67 -3 23 -13 48 -23 55 -28 21 -101 16 -124 -7z"/>
<path d="M6553 5692 c-23 -15 -34 -62 -23 -102 12 -43 24 -50 85 -50 36 0 48
5 65 28 26 32 22 98 -6 119 -19 14 -102 17 -121 5z"/>
<path d="M6799 5679 c-18 -18 -20 -30 -16 -67 6 -55 26 -72 82 -72 62 0 85 21
85 79 0 62 -20 81 -83 81 -35 0 -53 -6 -68 -21z"/>
<path d="M6292 5454 c-18 -12 -22 -25 -22 -64 0 -59 23 -80 87 -80 57 0 83 26
83 80 0 54 -26 80 -83 80 -23 0 -53 -7 -65 -16z"/>
<path d="M6545 5456 c-24 -17 -26 -100 -3 -123 26 -25 99 -29 127 -6 32 26 36
107 7 129 -25 18 -106 18 -131 0z"/>
<path d="M6799 5449 c-18 -18 -20 -30 -16 -67 6 -56 25 -72 87 -72 60 0 80 20
80 83 0 60 -18 77 -81 77 -37 0 -54 -5 -70 -21z"/>
<path d="M6315 5243 c-31 -7 -45 -33 -45 -79 0 -64 26 -82 110 -75 14 1 33 11
43 23 20 24 23 87 5 111 -14 17 -79 29 -113 20z"/>
<path d="M6550 5232 c-20 -17 -25 -29 -24 -66 1 -62 15 -76 79 -76 65 0 90 23
89 82 -2 50 -20 69 -76 75 -33 4 -49 1 -68 -15z"/>
<path d="M6022 4994 c-17 -12 -22 -25 -22 -58 0 -58 17 -77 72 -83 40 -5 50
-2 72 20 33 33 35 88 6 117 -25 25 -95 27 -128 4z"/>
<path d="M6286 4988 c-9 -12 -16 -41 -16 -65 0 -52 25 -73 87 -73 57 0 83 26
83 80 0 57 -26 80 -89 80 -40 0 -53 -4 -65 -22z"/>
<path d="M4884 3380 c-98 -25 -167 -62 -232 -124 -99 -93 -152 -194 -173 -325
-29 -190 64 -386 220 -466 57 -28 134 -36 207 -22 41 8 41 8 48 -24 3 -17 6
-94 6 -170 l0 -139 -539 0 -539 0 -48 -33 c-27 -18 -241 -174 -477 -346 -437
-321 -456 -338 -430 -380 6 -9 22 -17 37 -19 21 -3 72 31 254 166 125 94 331
245 457 336 l230 166 1113 0 c1037 0 1115 -1 1140 -17 15 -10 68 -47 117 -84
113 -83 580 -416 681 -486 41 -29 85 -53 98 -53 25 0 52 40 43 64 -3 8 -57 53
-119 99 -142 105 -679 490 -787 564 l-34 23 -538 0 -539 0 0 171 0 170 48 -8
c86 -15 149 -7 218 27 104 51 178 151 209 282 18 79 18 125 0 210 -23 112 -68
193 -154 279 -143 142 -323 190 -517 139z m1 -322 c52 -46 85 -119 87 -193 1
-30 -1 -58 -5 -62 -19 -19 -119 54 -153 113 -27 47 -46 140 -37 185 l5 29 30
-18 c17 -9 49 -34 73 -54z m383 -8 c-9 -117 -57 -193 -156 -244 -29 -15 -33
-15 -38 -1 -4 9 -4 45 -2 80 7 84 41 142 115 195 80 57 87 55 81 -30z m-468
-270 c52 -14 110 -67 136 -124 34 -73 32 -80 -18 -73 -84 12 -145 37 -192 79
-40 35 -96 106 -96 122 0 17 104 15 170 -4z m610 2 c0 -20 -82 -120 -118 -146
-63 -43 -202 -73 -202 -43 0 6 5 29 10 49 18 64 73 115 150 139 34 10 160 11
160 1z"/>
<path d="M2786 3264 c-27 -26 -19 -52 22 -73 20 -10 183 -81 362 -156 665
-281 748 -315 769 -315 26 0 46 42 32 69 -15 28 -14 27 -416 196 -193 81 -428
180 -524 221 -180 76 -218 85 -245 58z"/>
<path d="M7165 3269 c-22 -10 -225 -94 -760 -316 -192 -80 -358 -152 -367
-160 -24 -21 -23 -46 2 -68 26 -23 42 -19 230 60 74 31 198 83 275 114 642
265 725 303 725 329 0 42 -56 64 -105 41z"/>
<path d="M7195 3079 c-252 -110 -494 -212 -768 -325 -249 -103 -311 -134 -315
-160 -2 -12 16 -68 39 -125 23 -57 57 -140 74 -184 l32 -80 429 -287 c491
-329 899 -607 1059 -722 60 -43 125 -85 143 -93 69 -29 142 27 142 109 0 20
-36 177 -81 350 -44 172 -152 597 -239 943 -143 567 -162 632 -185 653 -44 38
-81 29 -330 -79z m300 -274 c19 -18 25 -35 25 -65 0 -55 -34 -90 -88 -90 -82
0 -125 98 -67 155 34 35 96 35 130 0z m76 -284 c17 -18 29 -40 29 -56 0 -41
-30 -84 -67 -96 -28 -9 -39 -7 -66 8 -45 27 -62 64 -47 108 23 70 99 88 151
36z m71 -278 c45 -43 34 -128 -19 -152 -40 -18 -73 -13 -104 18 -42 42 -41 99
2 135 41 35 84 34 121 -1z"/>
<path d="M2591 3098 c-27 -59 -138 -394 -231 -698 -23 -74 -66 -211 -95 -305
-101 -319 -237 -770 -251 -825 -22 -92 11 -161 83 -176 44 -9 62 2 491 299
336 233 865 595 1087 744 l90 61 73 196 c39 107 72 199 72 204 0 22 -56 49
-380 187 -190 81 -450 192 -579 247 -129 55 -244 106 -255 114 -11 8 -33 14
-49 14 -25 0 -31 -7 -56 -62z"/>
<path d="M5607 1863 c-84 -4 -87 -5 -82 -26 13 -53 45 -234 45 -253 0 -26 -19
-50 -46 -58 -41 -12 -63 22 -118 179 l-51 150 -126 3 -127 3 -6 -53 c-3 -29
-11 -125 -17 -213 -6 -87 -15 -167 -19 -176 -14 -26 -49 -30 -70 -9 -21 21
-27 57 -35 225 -3 66 -8 144 -12 173 l-6 52 -127 0 -127 0 -51 -164 c-29 -89
-60 -170 -70 -180 -39 -35 -92 -6 -92 50 0 27 31 211 45 272 5 22 4 22 -108
22 l-113 0 -80 -120 c-80 -123 -108 -146 -139 -120 -23 19 -18 42 33 144 l48
96 -66 0 -66 0 -192 -142 c-106 -79 -192 -146 -192 -150 0 -7 67 -34 215 -85
396 -136 755 -194 1185 -194 319 0 573 30 890 107 150 36 466 137 495 158 13
10 -1 23 -97 90 -62 44 -154 110 -205 148 l-91 68 -67 0 c-78 0 -77 9 -13
-132 31 -71 37 -91 28 -108 -13 -25 -52 -26 -72 -2 -8 9 -45 66 -83 125 -61
98 -96 133 -123 125 -4 -1 -46 -4 -95 -5z"/>
</g>
</svg>
